<svg width="800" height="800" viewBox="0 -.5 17 17" xmlns="http://www.w3.org/2000/svg" class="prefix__si-glyph prefix__si-glyph-arrow-change"><g fill="#899199" fill-rule="evenodd"><path d="M2.539 8.001c.828 0 1.379-.551 1.379-1.379l-.004-.435s-.205-1.233 1.44-1.233L12.015 5v1.759a.83.83 0 001.17 0l2.573-2.572a.83.83 0 000-1.17L13.185.292a.83.83 0 00-1.17 0v1.845c-.161-.047-6.453-.074-6.453-.074-3.711 0-4.523 2.429-4.523 3.407v1.031a1.5 1.5 0 001.5 1.5zM14.5 8.042c-.828 0-1.5.584-1.5 1.412l.002.957c-.045.357-.645.59-1.525.59H4.938l-.002-1.559a.83.83 0 00-1.17 0l-2.572 2.572a.83.83 0 000 1.17l2.572 2.572a.826.826 0 001.17 0l.002-1.851h6.539c3.711 0 4.523-2.442 4.523-3.421V9.453c0-.827-.672-1.411-1.5-1.411z" class="prefix__si-glyph-fill"/></g></svg>