<svg viewBox="0 0 24 24" fill="none" xmlns="http://www.w3.org/2000/svg"><g fill="#a9b1b9"><path d="M15.024 22c1.253 0 2.328-.066 3.227-.265.91-.203 1.698-.555 2.314-1.17.615-.616.967-1.404 1.17-2.314.2-.899.265-1.974.265-3.227V12a2 2 0 00-2-2h-8a2 2 0 00-2 2v8a2 2 0 002 2h3.024zM2 15.024c0 1.253.066 2.328.266 3.227.202.91.554 1.698 1.17 2.314.615.615 1.403.967 2.313 1.17.087.019.175.037.263.054C7.096 21.999 8 21.081 8 19.976V12a2 2 0 00-2-2H4a2 2 0 00-2 2v3.024zM8.976 2c-1.253 0-2.328.066-3.227.266-.91.202-1.698.554-2.314 1.17-.615.615-.967 1.403-1.17 2.313-.016.075-.032.15-.046.225C2.004 7.073 2.939 8 4.059 8h15.917c1.105 0 2.023-.904 1.813-1.988a9.932 9.932 0 00-.055-.263c-.202-.91-.554-1.698-1.17-2.314-.615-.615-1.403-.967-2.313-1.17-.899-.2-1.974-.265-3.227-.265H8.976z"/></g></svg>