<svg fill="#c9d1d9" viewBox="0 0 32 32" version="1.1" xmlns="http://www.w3.org/2000/svg"><g stroke-width="0"></g><g stroke-linecap="round" stroke-linejoin="round"></g><g> <path d="M0 26.016q0 2.496 1.76 4.256t4.256 1.76h13.984q2.496 0 4.256-1.76t1.76-4.256v-14.016q0-2.464-1.76-4.224t-4.256-1.76h-13.984q-2.496 0-4.256 1.76t-1.76 4.224v14.016zM4 26.016v-12h18.016v12q0 0.832-0.608 1.408t-1.408 0.576h-13.984q-0.832 0-1.44-0.576t-0.576-1.408zM4 10.016q0-0.832 0.576-1.408t1.44-0.608 1.408 0.608 0.576 1.408-0.576 1.408-1.408 0.608-1.44-0.608-0.576-1.408zM6.368 4h15.648q2.464 0 4.224 1.76t1.76 4.256v15.648q1.76-0.64 2.88-2.176t1.12-3.488v-13.984q0-2.496-1.76-4.256t-4.224-1.76h-14.016q-1.92 0-3.456 1.12t-2.176 2.88z"></path> </g></svg>