<svg fill="#e9f1f9" viewBox="0 0 32 32" xmlns="http://www.w3.org/2000/svg"><path d="M0 26.016q0 2.496 1.76 4.256t4.256 1.76H20q2.496 0 4.256-1.76t1.76-4.256V12q0-2.464-1.76-4.224T20 6.016H6.016q-2.496 0-4.256 1.76T0 12v14.016zm4 0v-12h18.016v12q0 .832-.608 1.408T20 28H6.016q-.832 0-1.44-.576T4 26.016zm0-16q0-.832.576-1.408T6.016 8t1.408.608T8 10.016t-.576 1.408-1.408.608-1.44-.608T4 10.016zM6.368 4h15.648q2.464 0 4.224 1.76T28 10.016v15.648q1.76-.64 2.88-2.176T32 20V6.016q0-2.496-1.76-4.256T26.016 0H12q-1.92 0-3.456 1.12T6.368 4z"/></svg>