<svg shape-rendering="geometricPrecision" text-rendering="geometricPrecision" image-rendering="optimizeQuality" fill-rule="evenodd" clip-rule="evenodd" width="481.701" height="433.454" xmlns="http://www.w3.org/2000/svg"><path fill="#adadb0" d="M332.701 0a58.432 58.432 0 0116 7.5c84.412 54.058 128.745 131.558 133 232.5a476.286 476.286 0 01-1.5 26 133.685 133.685 0 01-5.5 29 227.616 227.616 0 01-31 16c23.186-98.928-1.814-183.428-75-253.5-19.202-16.105-40.202-29.438-63-40 .26-1.261.926-2.261 2-3 8.396-4.86 16.73-9.693 25-14.5z"/><path fill="#cfd0d1" d="M291.701 71c30.836 14.662 55.67 36.329 74.5 65 28.318 44.259 37.652 92.259 28 144a197.602 197.602 0 01-19.5 12.5c-2.107.854-3.44.188-4-2 15.186-61.751 2.02-116.584-39.5-164.5-16.74-18.091-36.24-32.257-58.5-42.5.26-1.261.926-2.261 2-3a9749.76 9749.76 0 0017-9.5z"/><path fill="#555b63" d="M150.701 98c72.69-5.015 127.857 23.319 165.5 85 27.313 53.669 27.313 107.336 0 161-40.452 64.968-98.952 92.468-175.5 82.5-50.715-10.437-89.215-37.937-115.5-82.5-20.334-39.692-25.334-81.358-15-125 15.762-49.769 47.262-85.936 94.5-108.5 14.87-6.381 30.202-10.548 46-12.5zm14 21c62.217.831 107.717 28.498 136.5 83 22.968 55.305 16.301 106.638-20 154-47.814 50.698-104.314 63.531-169.5 38.5-49.673-24.476-77.84-64.31-84.5-119.5-2.22-55.386 18.946-99.22 63.5-131.5 22.736-14.301 47.403-22.468 74-24.5z" stroke="#555b63" stroke-width="10"/><path fill="#cfd0d1" d="M207.701 164c16.237 6.397 30.07 16.397 41.5 30 24.692 30.925 33.525 65.925 26.5 105l-13 6.5c-1.135.749-2.135.583-3-.5 11.544-49.205-2.456-89.371-42-120.5a191.654 191.654 0 00-23-12.5 131.195 131.195 0 0113-8z"/></svg>