<svg viewBox="-3 0 24 24" id="meteor-icon-kit__solid-file-signature" fill="none" xmlns="http://www.w3.org/2000/svg"><g id="SVGRepo_bgCarrier" stroke-width="0"></g><g id="SVGRepo_tracerCarrier" stroke-linecap="round" stroke-linejoin="round"></g><g id="SVGRepo_iconCarrier"><path fill-rule="evenodd" clip-rule="evenodd" d="M 3 18 C 2.4 18 2 18.4 2 19 C 2 19.6 2.4 20 3 20 H 10 C 10.3 20 10.5 19.9 10.7 19.7 L 18 12.4 V 22 C 18 23.1 17.1 24 16 24 H 2 C 0.9 24 0 23.1 0 22 V 6 H 5 C 5.6 6 6 5.6 6 5 V 0 H 16 C 17.1 0 18 0.9 18 2 V 7.6 L 16.7 6.3 C 16.3 5.9 15.7 5.9 15.3 6.3 L 6.3 15.3 C 6.1 15.5 6 15.7 6 16 V 18 H 3 z M 4 0.3 V 4 H 0.3 C 0.9 2.3 2.3 0.9 4 0.3 z M 9.6 18 H 8 V 16.4 L 16 8.4 L 17.6 10 L 9.6 18 z" fill="#c9d1d9"></path></g></svg>